<svg width="512" height="512" viewBox="0 0 512 512" fill="none" xmlns="http://www.w3.org/2000/svg">
  <defs>
    <linearGradient id="bg" x1="96" y1="64" x2="416" y2="448" gradientUnits="userSpaceOnUse">
      <stop stop-color="#17324A"/>
      <stop offset="1" stop-color="#2A6F8F"/>
    </linearGradient>
    <linearGradient id="book" x1="160" y1="176" x2="352" y2="336" gradientUnits="userSpaceOnUse">
      <stop stop-color="#F7FBFF"/>
      <stop offset="1" stop-color="#DCEBFF"/>
    </linearGradient>
    <linearGradient id="accent" x1="192" y1="168" x2="320" y2="344" gradientUnits="userSpaceOnUse">
      <stop stop-color="#62D0D9"/>
      <stop offset="1" stop-color="#4FA6F7"/>
    </linearGradient>
  </defs>
  <rect width="512" height="512" rx="120" fill="url(#bg)"/>
  <path
    d="M152 184C152 170.745 162.745 160 176 160H244C252.837 160 260 167.163 260 176V352C260 343.163 252.837 336 244 336H176C162.745 336 152 325.255 152 312V184Z"
    fill="url(#book)"
  />
  <path
    d="M360 184C360 170.745 349.255 160 336 160H268C259.163 160 252 167.163 252 176V352C252 343.163 259.163 336 268 336H336C349.255 336 360 325.255 360 312V184Z"
    fill="url(#book)"
  />
  <path
    d="M256 176V336"
    stroke="url(#accent)"
    stroke-width="16"
    stroke-linecap="round"
  />
  <path
    d="M184 208H220"
    stroke="url(#accent)"
    stroke-width="16"
    stroke-linecap="round"
  />
  <path
    d="M292 208H328"
    stroke="url(#accent)"
    stroke-width="16"
    stroke-linecap="round"
  />
  <path
    d="M184 248H220"
    stroke="url(#accent)"
    stroke-width="16"
    stroke-linecap="round"
  />
  <path
    d="M292 248H328"
    stroke="url(#accent)"
    stroke-width="16"
    stroke-linecap="round"
  />
</svg>
